HIERARCHY
ROOT hip
{
	OFFSET 0.000000 0.000000 0.000000 
	CHANNELS 6 Xposition Yposition Zposition Xrotation Zrotation Yrotation
	JOINT abdomen
	{
		OFFSET 0.000000 3.402643 0.000000 
		CHANNELS 3 Xrotation Zrotation Yrotation
		JOINT chest
		{
			OFFSET 0.000000 8.438565 -0.680529 
			CHANNELS 3 Xrotation Zrotation Yrotation
			JOINT neck
			{
				OFFSET 0.000000 10.207942 -0.272212 
				CHANNELS 3 Xrotation Zrotation Yrotation
				JOINT head
				{
					OFFSET 0.000000 3.130431 0.000000 
					CHANNELS 3 Xrotation Zrotation Yrotation
					End Site
					{
						OFFSET 0.000000 3.130435 0.000000 
					}
				}
			}
			JOINT lCollar
			{
				OFFSET 3.470700 6.669187 -0.816635 
				CHANNELS 3 Yrotation Zrotation Xrotation
				JOINT lShldr
				{
					OFFSET 3.198488 0.000000 0.000000 
					CHANNELS 3 Zrotation Yrotation Xrotation
					JOINT lForeArm
					{
						OFFSET 10.139888 0.000000 0.000000 
						CHANNELS 3 Yrotation Zrotation Xrotation
						JOINT lHand
						{
							OFFSET 8.370511 0.000000 0.000000 
							CHANNELS 3 Zrotation Yrotation Xrotation
							End Site
							{
								OFFSET 4.083176 0.000000 0.000000 
							}
						}
					}
				}
			}
			JOINT rCollar
			{
				OFFSET -3.470700 6.669187 -0.816635 
				CHANNELS 3 Yrotation Zrotation Xrotation
				JOINT rShldr
				{
					OFFSET -3.198488 0.000000 0.000000 
					CHANNELS 3 Zrotation Yrotation Xrotation
					JOINT rForeArm
					{
						OFFSET -10.139888 0.000000 0.000000 
						CHANNELS 3 Yrotation Zrotation Xrotation
						JOINT rHand
						{
							OFFSET -8.370511 0.000000 0.000000 
							CHANNELS 3 Zrotation Yrotation Xrotation
							End Site
							{
								OFFSET -4.083176 0.000000 0.000000 
							}
						}
					}
				}
			}
		}
	}
	JOINT lThigh
	{
		OFFSET 5.308129 -1.633274 1.361059 
		CHANNELS 3 Xrotation Zrotation Yrotation
		JOINT lShin
		{
			OFFSET -2.041588 -20.007561 0.000000 
			CHANNELS 3 Xrotation Zrotation Yrotation
			JOINT lFoot
			{
				OFFSET 0.000000 -19.190928 -1.224953 
				CHANNELS 3 Xrotation Yrotation Zrotation
				End Site
				{
					OFFSET 0.000000 -2.449906 4.627600 
				}
			}
		}
	}
	JOINT rThigh
	{
		OFFSET -5.308129 -1.633274 1.361059 
		CHANNELS 3 Xrotation Zrotation Yrotation
		JOINT rShin
		{
			OFFSET 2.041588 -20.007561 0.000000 
			CHANNELS 3 Xrotation Zrotation Yrotation
			JOINT rFoot
			{
				OFFSET 0.000000 -19.190928 -1.224953 
				CHANNELS 3 Xrotation Yrotation Zrotation
				End Site
				{
					OFFSET 0.000000 -2.449906 4.627600 
				}
			}
		}
	}
}
MOTION
Frames: 20
Frame Time: 0.016667
-12.404180 50.057640 67.643478 -0.468020 10.255940 62.985527 32.747002 0.644525 0.254000 -20.570631 6.874984 0.128378 0.776344 -1.632342 -30.003798 8.502053 13.042706 -30.302616 2.470160 -3.184015 -0.009741 -58.561241 14.559757 0.563484 -60.561623 3.147145 38.167896 -1.582405 16.947031 -0.461250 4.510762 -5.616003 -0.009689 25.787998 3.220544 -60.101997 51.682903 -0.791748 8.027730 -9.580815 -4.575862 0.761577 -0.059607 18.012114 5.811650 29.831285 -1.165896 -2.504037 20.673306 2.271579 -13.122345 -2.128508 -18.152210 1.411822 27.780184 1.186700 2.385212 1.875033 -7.225583 12.221877 
-12.310029 49.998730 67.433548 -0.753277 10.128452 62.321091 32.774979 0.644529 0.136820 -20.495634 7.041016 0.020581 0.791017 -1.798641 -29.694136 8.437896 12.964620 -30.038189 2.382246 -3.320719 -0.009741 -58.950993 14.756431 0.634195 -60.368034 3.154362 38.279789 -1.737774 16.867409 -0.511032 4.667116 -5.010560 -0.009696 26.884037 2.483601 -58.251125 53.399296 -0.708383 7.269843 -10.311887 -4.306341 0.772150 0.204324 17.938745 5.830492 30.124590 -1.156253 -2.516593 19.502407 2.657064 -13.173832 -2.390869 -18.174826 1.781353 27.721582 1.186648 2.382227 2.061961 -6.904371 12.256983 
-12.215863 49.939812 67.223572 -1.047112 9.999428 61.651814 32.802845 0.644531 0.009875 -20.422522 7.216786 -0.098110 0.798946 -1.974394 -29.384451 8.372867 12.885730 -29.775974 2.284567 -3.457420 -0.009740 -59.351170 14.954912 0.699711 -60.185230 3.165736 38.384407 -1.890043 16.787958 -0.553912 4.813705 -4.395351 -0.009703 27.955935 1.717185 -56.416775 55.109531 -0.649499 6.503611 -11.042671 -4.037322 0.776743 0.457873 17.852036 5.847113 30.408838 -1.146547 -2.509140 18.326370 3.023452 -13.221751 -2.664212 -18.185062 2.181792 27.673094 1.186803 2.370074 2.272042 -6.596798 12.286189 
-12.114457 49.873123 66.984245 -1.326295 9.873706 61.030273 32.849911 0.605466 -0.156241 -20.373472 7.392510 -0.245881 0.786544 -2.082849 -29.073944 8.362302 12.826694 -29.485435 2.206427 -3.545298 -0.009740 -59.773308 15.025556 0.830070 -59.948467 3.174509 38.541779 -2.052385 16.708303 -0.599188 4.921224 -3.828963 -0.009708 29.155251 0.928651 -54.428192 56.666317 -0.588091 5.873364 -12.063116 -3.537763 0.735436 0.702262 17.756414 5.653581 30.672108 -1.136740 -2.539554 17.164700 3.199668 -13.183534 -2.957633 -18.246716 2.562131 27.662960 1.196397 2.371735 2.436896 -6.316867 12.283759 
-12.013033 49.806416 66.744865 -1.585020 9.750966 60.411491 32.897202 0.566397 -0.322250 -20.315573 7.568183 -0.393653 0.777325 -2.200627 -28.753801 8.362923 12.768034 -29.185429 2.128287 -3.633175 -0.009739 -60.184521 15.107284 0.966692 -59.722668 3.179300 38.696671 -2.204403 16.628645 -0.638435 5.028741 -3.272340 -0.009712 30.326845 0.096356 -52.455830 58.215927 -0.535894 5.240015 -13.084574 -3.036711 0.694983 0.945411 17.647400 5.458773 30.916346 -1.122430 -2.557993 16.030994 3.362941 -13.154476 -3.259965 -18.284136 2.954476 27.653193 1.196401 2.371240 2.617884 -6.058751 12.294173 
-11.905255 49.733315 66.479790 -1.834594 9.648535 59.834717 32.964195 0.468728 -0.556622 -20.226337 7.890224 -0.581442 0.730175 -2.396530 -28.425652 8.363292 12.714718 -28.906473 2.147793 -3.779663 -0.009738 -60.626678 14.965817 1.224690 -59.435608 3.206150 39.003464 -2.233597 16.511217 -0.642460 5.077641 -2.852427 -0.009715 31.548901 -0.642735 -50.462189 59.512512 -0.491091 4.809410 -14.067453 -2.676176 0.649977 1.121787 17.525019 5.147141 31.267975 -1.107707 -2.581819 14.937508 3.276548 -13.049436 -3.563294 -18.404459 3.314535 27.692263 1.196416 2.373229 2.856283 -5.824110 12.305670 
-11.797456 49.660236 66.214645 -2.090179 9.539606 59.266720 33.022358 0.361294 -0.791000 -20.129601 8.221925 -0.769252 0.680375 -2.593766 -28.088108 8.365161 12.661841 -28.618044 2.167298 -3.935916 -0.009736 -61.069370 14.833740 1.478766 -59.153496 3.230935 39.302494 -2.262766 16.393789 -0.646368 5.136307 -2.422750 -0.009718 32.749016 -1.414113 -48.499969 60.809750 -0.446489 4.375292 -15.051309 -2.322552 0.614157 1.278976 17.381746 4.831683 31.590435 -1.088324 -2.602772 13.843769 3.200023 -12.952971 -3.884241 -18.507200 3.667894 27.731335 1.196456 2.375223 3.088576 -5.593073 12.325852 
-11.681333 49.595459 65.920631 -2.274494 9.434851 58.735905 33.052471 0.224571 -1.064445 -19.968676 8.582779 -0.966716 0.584017 -2.800751 -27.750940 8.370111 12.576105 -28.304277 2.313745 -4.150785 -0.009732 -61.376553 14.497468 1.970791 -58.849819 3.241698 39.462139 -2.242180 16.374495 -0.640126 5.175428 -2.080959 -0.009719 33.952168 -2.122401 -46.606262 61.844475 -0.429833 4.087774 -15.897926 -1.965684 0.549271 1.472851 17.160841 4.433847 31.785713 -1.088431 -2.612747 12.868569 3.065906 -12.859932 -4.178529 -18.688856 3.848252 27.652838 1.196379 2.380947 3.375598 -5.284980 12.340194 
-11.565177 49.530701 65.626564 -2.475293 9.322770 58.203205 33.093655 0.087867 -1.337889 -19.802254 8.953221 -1.175304 0.480252 -3.000473 -27.404417 8.357313 12.496855 -28.004242 2.460193 -4.365654 -0.009728 -61.697098 14.153845 2.465567 -58.540173 3.257859 39.627193 -2.231662 16.345329 -0.636282 5.214549 -1.739169 -0.009721 35.130764 -2.860472 -44.736546 62.869549 -0.400950 3.805423 -16.735041 -1.611395 0.474064 1.658429 16.945751 4.054514 31.961399 -1.078907 -2.628789 11.918389 2.927324 -12.769536 -4.481198 -18.874960 4.020722 27.583918 1.192012 2.395920 3.657768 -4.993577 12.347724 
-11.436431 49.473766 65.305061 -2.670541 9.260433 57.665749 33.155914 -0.058571 -1.582040 -19.641685 9.313883 -1.345384 0.365645 -3.262448 -27.049667 8.414574 12.463212 -27.677883 2.518755 -4.551211 -0.009725 -62.035622 13.764276 2.954468 -58.225414 3.283171 40.022705 -2.330959 16.139309 -0.655789 5.263405 -1.573161 -0.009721 36.431587 -3.626865 -42.985886 63.691372 -0.370654 3.548747 -17.348923 -1.410462 0.430224 1.912948 16.684530 3.794868 32.108139 -1.069140 -2.633608 10.977910 2.814865 -12.703985 -4.695956 -19.117493 4.174814 27.399202 1.206173 2.350807 4.038976 -4.700819 12.374840 
-11.307693 49.416859 64.983490 -2.856662 9.202714 57.130947 33.229191 -0.204974 -1.826195 -19.493313 9.684175 -1.515556 0.257615 -3.525903 -26.695518 8.464513 12.436381 -27.363064 2.587080 -4.746534 -0.009722 -62.366695 13.371185 3.445575 -57.904739 3.303995 40.417435 -2.419924 15.933385 -0.671934 5.312263 -1.397389 -0.009721 37.715439 -4.443718 -41.254761 64.523155 -0.342714 3.286263 -17.962778 -1.222980 0.375848 2.166256 16.407167 3.552697 32.244743 -1.059543 -2.647661 10.052210 2.705337 -12.628306 -4.930648 -19.352835 4.312028 27.223013 1.206215 2.351593 4.406000 -4.425924 12.394393 
-11.183044 49.369976 64.633560 -2.997023 9.126307 56.603531 33.254478 -0.341576 -2.060627 -19.304638 9.995810 -1.674489 0.150517 -3.782694 -26.321878 8.462731 12.418624 -27.038719 2.567509 -4.980906 -0.009719 -62.626614 13.009455 3.919230 -57.724033 3.321987 40.668278 -2.420283 15.962656 -0.673118 5.409944 -1.250921 -0.009720 38.980415 -5.207520 -39.725403 65.067650 -0.336063 3.153730 -18.116793 -0.804286 0.242562 2.410198 16.047691 3.459989 32.264275 -1.059611 -2.648665 9.037026 2.766365 -12.587766 -5.192801 -19.633097 4.353735 26.939117 1.221329 2.340509 4.800389 -4.196299 12.396544 
-11.058400 49.323109 64.283585 -3.126751 9.049552 56.075768 33.290646 -0.478132 -2.295005 -19.127501 10.307317 -1.835138 0.044932 -4.032467 -25.938387 8.448431 12.409969 -26.704845 2.557705 -5.205514 -0.009716 -62.887936 12.651786 4.393713 -57.541946 3.337552 40.907307 -2.420522 15.982170 -0.673907 5.507626 -1.104453 -0.009719 40.227238 -6.005911 -38.225063 65.601891 -0.321181 3.020771 -18.271858 -0.392538 0.119318 2.644114 15.674410 3.363859 32.294277 -1.059491 -2.630707 8.022743 2.798732 -12.534028 -5.445976 -19.914055 4.395602 26.665348 1.235716 2.319990 5.209654 -3.979408 12.434427 
-10.934299 49.280910 63.908112 -3.219957 8.987104 55.564762 33.329117 -0.643908 -2.519702 -18.940887 10.628515 -1.986247 -0.120490 -4.293469 -25.526226 8.446977 12.385233 -26.351957 2.469769 -5.469171 -0.009712 -63.098606 12.319879 4.829097 -57.409954 3.356616 41.155315 -2.439633 15.884372 -0.675305 5.624821 -1.055645 -0.009717 41.484875 -6.742003 -36.849796 65.899811 -0.317673 3.042845 -18.398661 0.247112 -0.092487 2.840853 15.193288 3.431937 32.332977 -1.059577 -2.642407 7.029090 3.058794 -12.501170 -5.789100 -20.229862 4.437388 26.450422 1.235733 2.309047 5.687071 -3.859426 12.459735 
-10.810225 49.238708 63.532604 -3.303022 8.925363 55.053425 33.378323 -0.799856 -2.754183 -18.763876 10.949653 -2.127833 -0.283967 -4.547111 -25.113859 8.442739 12.369474 -25.987427 2.381833 -5.732827 -0.009708 -63.310444 11.990918 5.268796 -57.272034 3.369086 41.403492 -2.466122 15.786876 -0.669906 5.742018 -0.997071 -0.009715 42.726471 -7.500895 -35.491917 66.198181 -0.332455 3.059563 -18.537611 0.885762 -0.307264 3.046071 14.706360 3.488708 32.362270 -1.059651 -2.643908 6.044228 3.315633 -12.474892 -6.129951 -20.531103 4.451964 26.244324 1.241010 2.319149 6.165420 -3.755543 12.448057 
-10.698453 49.198055 63.136917 -3.366102 8.884030 54.619854 33.477280 -0.945969 -2.998605 -18.630644 11.251001 -2.288646 -0.466568 -4.766274 -24.710911 8.369781 12.342126 -25.641830 2.274367 -5.986716 -0.009705 -63.551052 11.689032 5.658821 -57.253387 3.376974 41.491192 -2.469606 15.844994 -0.681712 5.908036 -0.987333 -0.009712 43.950008 -8.277709 -34.208393 66.357620 -0.336729 3.147858 -18.825270 1.494294 -0.519495 3.161839 14.155094 3.671785 32.382366 -1.064932 -2.626911 5.046342 3.705638 -12.431829 -6.552281 -20.849083 4.377200 26.147150 1.245448 2.295683 6.669825 -3.820428 12.515612 
-10.586717 49.157417 62.741196 -3.423140 8.853042 54.178116 33.577492 -1.091999 -3.242901 -18.489384 11.552197 -2.451433 -0.646431 -4.977628 -24.306705 8.292013 12.322838 -25.298273 2.166903 -6.230838 -0.009701 -63.783367 11.380446 6.048967 -57.229870 3.389293 41.586090 -2.470334 15.903536 -0.684129 6.064290 -0.967829 -0.009710 45.144318 -9.091509 -32.929470 66.517349 -0.340470 3.234791 -19.125059 2.100588 -0.738402 3.279768 13.599733 3.862806 32.391827 -1.049923 -2.642773 4.052887 4.113723 -12.396689 -6.980862 -21.149614 4.296801 26.049215 1.250884 2.291847 7.185747 -3.844516 12.545397 
-10.491197 49.120358 62.336178 -3.461000 8.814648 53.816181 33.699879 -1.257421 -3.496965 -18.332153 11.892255 -2.614324 -0.893015 -5.153883 -23.911650 8.192183 12.312654 -24.947252 2.049670 -6.494490 -0.009697 -63.984398 10.997291 6.487783 -57.192310 3.388541 41.624836 -2.350820 16.100054 -0.659685 6.201008 -0.967852 -0.009707 46.247555 -9.791574 -31.733038 66.504791 -0.346431 3.355512 -19.454910 2.571978 -0.928734 3.299537 13.025249 4.006843 32.479340 -1.050072 -2.656952 3.048966 4.659091 -12.326935 -7.428623 -21.429611 4.102044 25.981344 1.255307 2.269859 7.737583 -4.128447 12.629967 
-10.395707 49.083328 61.931137 -3.507715 8.774121 53.454098 33.833504 -1.422728 -3.751267 -18.176420 12.222382 -2.777308 -1.142846 -5.331272 -23.506220 8.095507 12.309707 -24.605679 1.932437 -6.758142 -0.009692 -64.195404 10.626766 6.933253 -57.154736 3.387825 41.663586 -2.231097 16.296535 -0.634464 6.337727 -0.967875 -0.009705 47.348515 -10.514903 -30.557781 66.492828 -0.361399 3.472474 -19.785875 3.035370 -1.111994 3.309658 12.451134 4.160173 32.557713 -1.040373 -2.658274 2.030849 5.162342 -12.271941 -7.878455 -21.713991 3.909247 25.902756 1.265040 2.267904 8.308455 -4.439137 12.708266 
-10.314249 49.058903 61.520527 -3.534684 8.772545 53.132156 34.017155 -1.587930 -3.995852 -18.015211 12.494025 -2.919188 -1.426635 -5.354736 -23.144024 7.976863 12.215265 -24.274757 1.776153 -6.953428 -0.009689 -64.333183 10.211339 7.450961 -57.082966 3.389795 41.581741 -2.122326 16.580709 -0.614349 6.415857 -0.938591 -0.009703 48.367584 -11.124117 -29.358015 66.319603 -0.371247 3.632949 -20.096037 3.368790 -1.251911 3.258793 11.848403 4.348526 32.675236 -1.040352 -2.654475 1.106403 5.620123 -12.174094 -8.251402 -21.971498 3.619438 25.667830 1.274812 2.257950 9.087981 -4.947615 12.855102 
